REM DIRINDEX 1\2,1\3,1\4
REM DIRNAME folder01,folder02,folder03,folder04
TITLE ""
FILE "DISC2Track17.mp3" MP3
  TRACK 01 AUDIO
    TITLE "0:"
    INDEX 01 00:00:00
  TRACK 02 AUDIO
    TITLE "4:cjc105_2714"
    INDEX 01 00:00:19
  TRACK 03 AUDIO
    TITLE "0:"
    INDEX 01 00:05:36
  TRACK 04 AUDIO
    TITLE "4:cjc105_2715"
    INDEX 01 00:06:08
  TRACK 05 AUDIO
    TITLE "0:"
    INDEX 01 00:08:30
  TRACK 06 AUDIO
    TITLE "2:cjc105_2716"
    INDEX 01 00:09:06
  TRACK 07 AUDIO
    TITLE "3:cjc105_2717"
    INDEX 01 00:10:31
  TRACK 08 AUDIO
    TITLE "0:"
    INDEX 01 00:12:01
  TRACK 09 AUDIO
    TITLE "2:cjc105_2718"
    INDEX 01 00:12:11
  TRACK 10 AUDIO
    TITLE "3:cjc105_2719"
    INDEX 01 00:13:28
  TRACK 11 AUDIO
    TITLE "0:"
    INDEX 01 00:15:09
  TRACK 12 AUDIO
    TITLE "2:cjc105_2720"
    INDEX 01 00:15:19
  TRACK 13 AUDIO
    TITLE "3:cjc105_2721"
    INDEX 01 00:16:28
  TRACK 14 AUDIO
    TITLE "0:"
    INDEX 01 00:17:55
  TRACK 15 AUDIO
    TITLE "2:cjc105_2722"
    INDEX 01 00:17:67
  TRACK 16 AUDIO
    TITLE "3:cjc105_2723"
    INDEX 01 00:18:74
  TRACK 17 AUDIO
    TITLE "0:"
    INDEX 01 00:20:18
  TRACK 18 AUDIO
    TITLE "2:cjc105_2724"
    INDEX 01 00:20:32
  TRACK 19 AUDIO
    TITLE "3:cjc105_2725"
    INDEX 01 00:21:25
  TRACK 20 AUDIO
    TITLE "0:"
    INDEX 01 00:22:66
  TRACK 21 AUDIO
    TITLE "2:cjc105_2726"
    INDEX 01 00:23:04
  TRACK 22 AUDIO
    TITLE "3:cjc105_2727"
    INDEX 01 00:24:47
  TRACK 23 AUDIO
    TITLE "0:"
    INDEX 01 00:25:66
  TRACK 24 AUDIO
    TITLE "2:cjc105_2728"
    INDEX 01 00:26:05
  TRACK 25 AUDIO
    TITLE "3:cjc105_2729"
    INDEX 01 00:27:16
  TRACK 26 AUDIO
    TITLE "0:"
    INDEX 01 00:28:39
  TRACK 27 AUDIO
    TITLE "2:cjc105_2730"
    INDEX 01 00:28:53
  TRACK 28 AUDIO
    TITLE "3:cjc105_2731"
    INDEX 01 00:30:14
  TRACK 29 AUDIO
    TITLE "0:"
    INDEX 01 00:31:39
  TRACK 30 AUDIO
    TITLE "2:cjc105_2732"
    INDEX 01 00:31:57
  TRACK 31 AUDIO
    TITLE "3:cjc105_2733"
    INDEX 01 00:32:72
  TRACK 32 AUDIO
    TITLE "0:"
    INDEX 01 00:34:30
  TRACK 33 AUDIO
    TITLE "2:cjc105_2734"
    INDEX 01 00:34:43
  TRACK 34 AUDIO
    TITLE "3:cjc105_2735"
    INDEX 01 00:35:37
  TRACK 35 AUDIO
    TITLE "0:"
    INDEX 01 00:36:60
  TRACK 36 AUDIO
    TITLE "2:cjc105_2736"
    INDEX 01 00:36:74
  TRACK 37 AUDIO
    TITLE "3:cjc105_2737"
    INDEX 01 00:38:14
  TRACK 38 AUDIO
    TITLE "0:"
    INDEX 01 00:39:39
  TRACK 39 AUDIO
    TITLE "2:cjc105_2738"
    INDEX 01 00:39:56
  TRACK 40 AUDIO
    TITLE "3:cjc105_2739"
    INDEX 01 00:41:00
  TRACK 41 AUDIO
    TITLE "0:"
    INDEX 01 00:42:18
  TRACK 42 AUDIO
    TITLE "2:cjc105_2740"
    INDEX 01 00:42:29
  TRACK 43 AUDIO
    TITLE "3:cjc105_2741"
    INDEX 01 00:43:58
  TRACK 44 AUDIO
    TITLE "0:"
    INDEX 01 00:45:16
  TRACK 45 AUDIO
    TITLE "2:cjc105_2742"
    INDEX 01 00:45:26
  TRACK 46 AUDIO
    TITLE "3:cjc105_2743"
    INDEX 01 00:46:45
  TRACK 47 AUDIO
    TITLE "0:"
    INDEX 01 00:48:12
  TRACK 48 AUDIO
    TITLE "2:cjc105_2744"
    INDEX 01 00:48:28
  TRACK 49 AUDIO
    TITLE "3:cjc105_2745"
    INDEX 01 00:49:53
  TRACK 50 AUDIO
    TITLE "0:"
    INDEX 01 00:51:01
  TRACK 51 AUDIO
    TITLE "2:cjc105_2746"
    INDEX 01 00:51:16
  TRACK 52 AUDIO
    TITLE "3:cjc105_2747"
    INDEX 01 00:52:34
  TRACK 53 AUDIO
    TITLE "0:"
    INDEX 01 00:53:72
  TRACK 54 AUDIO
    TITLE "2:cjc105_2748"
    INDEX 01 00:54:11
  TRACK 55 AUDIO
    TITLE "3:cjc105_2749"
    INDEX 01 00:55:51
  TRACK 56 AUDIO
    TITLE "0:"
    INDEX 01 00:57:13
  TRACK 57 AUDIO
    TITLE "2:cjc105_2750"
    INDEX 01 00:57:23
  TRACK 58 AUDIO
    TITLE "3:cjc105_2751"
    INDEX 01 00:58:18
  TRACK 59 AUDIO
    TITLE "0:"
    INDEX 01 00:59:34
  TRACK 60 AUDIO
    TITLE "2:cjc105_2752"
    INDEX 01 00:59:43
  TRACK 61 AUDIO
    TITLE "3:cjc105_2753"
    INDEX 01 01:00:41
  TRACK 62 AUDIO
    TITLE "0:"
    INDEX 01 01:02:01
  TRACK 63 AUDIO
    TITLE "2:cjc105_2754"
    INDEX 01 01:02:10
  TRACK 64 AUDIO
    TITLE "3:cjc105_2755"
    INDEX 01 01:03:16
  TRACK 65 AUDIO
    TITLE "0:"
    INDEX 01 01:04:48
  TRACK 66 AUDIO
    TITLE "2:cjc105_2756"
    INDEX 01 01:04:62
  TRACK 67 AUDIO
    TITLE "3:cjc105_2757"
    INDEX 01 01:06:20
  TRACK 68 AUDIO
    TITLE "0:"
    INDEX 01 01:08:09
  TRACK 69 AUDIO
    TITLE "2:cjc105_2758"
    INDEX 01 01:08:27
  TRACK 70 AUDIO
    TITLE "3:cjc105_2759"
    INDEX 01 01:11:00
  TRACK 71 AUDIO
    TITLE "0:"
    INDEX 01 01:12:30
  TRACK 72 AUDIO
    TITLE "2:cjc105_2760"
    INDEX 01 01:12:44
  TRACK 73 AUDIO
    TITLE "3:cjc105_2761"
    INDEX 01 01:13:59
  TRACK 74 AUDIO
    TITLE "0:"
    INDEX 01 01:15:07
  TRACK 75 AUDIO
    TITLE "2:cjc105_2762"
    INDEX 01 01:15:19
  TRACK 76 AUDIO
    TITLE "3:cjc105_2763"
    INDEX 01 01:16:34
  TRACK 77 AUDIO
    TITLE "0:"
    INDEX 01 01:17:69
  TRACK 78 AUDIO
    TITLE "2:cjc105_2764"
    INDEX 01 01:18:19
  TRACK 79 AUDIO
    TITLE "3:cjc105_2765"
    INDEX 01 01:19:48
  TRACK 80 AUDIO
    TITLE "0:"
    INDEX 01 01:20:73
  TRACK 81 AUDIO
    TITLE "2:cjc105_2766"
    INDEX 01 01:21:23
  TRACK 82 AUDIO
    TITLE "3:cjc105_2767"
    INDEX 01 01:22:35
  TRACK 83 AUDIO
    TITLE "0:"
    INDEX 01 01:24:04
  TRACK 84 AUDIO
    TITLE "2:cjc105_2768"
    INDEX 01 01:24:20
  TRACK 85 AUDIO
    TITLE "3:cjc105_2769"
    INDEX 01 01:25:13
  TRACK 86 AUDIO
    TITLE "0:"
    INDEX 01 01:26:29
  TRACK 87 AUDIO
    TITLE "2:cjc105_2770"
    INDEX 01 01:26:38
  TRACK 88 AUDIO
    TITLE "3:cjc105_2771"
    INDEX 01 01:27:40
  TRACK 89 AUDIO
    TITLE "0:"
    INDEX 01 01:30:03
